<svg width="110" height="36" viewBox="0 0 110 36" fill="none" xmlns="http://www.w3.org/2000/svg">
<g clip-path="url(#clip0_20_428)">
<path d="M41.892 31.3975C37.8328 28.7634 32.3238 28.3012 23.4394 30.7842C13.968 33.0262 10.8101 34.4634 6.6629 31.5783C5.06962 30.1609 4.4984 27.8789 4.92494 24.5919C5.91426 19.2333 8.5878 14.0766 13.3368 8.35655C15.9874 5.381 18.4463 2.82743 21.693 1.80202C24.1814 1.15875 23.9488 3.12867 23.6477 3.4104C23.3299 3.4104 22.7962 3.46081 22.3837 3.73196C22.0489 3.9935 21.13 4.83801 21.0806 5.974C21.0094 7.71301 22.7959 7.35106 23.5665 6.39625C24.3971 5.32029 25.6247 3.25985 24.6591 1.33952C24.2543 0.656003 23.5551 0.183613 22.6868 0.0227616C19.7138 -0.148392 16.9451 1.27922 14.3897 2.85751C8.80121 6.76809 4.3308 12.1868 1.80126 18.1181C0.342986 21.6968 -0.975923 26.8232 1.00094 30.9956C2.53039 33.8906 5.70535 35.4284 9.4934 35.1068C12.1502 34.8256 15.3628 33.9607 17.5234 33.4384C19.6843 32.9152 30.7444 29.0855 34.3785 35.7511C34.3785 35.7511 35.587 33.388 38.607 33.3376C41.0899 33.1068 44.6719 34.0616 47.2803 35.9914C46.4113 34.675 43.9474 32.7347 41.892 31.3975V31.3975Z" fill="#E61A27"/>
<path d="M24.5673 9.02985C22.4987 7.66268 18.341 10.2764 15.0108 14.7598C11.9655 18.7814 10.6506 23.4554 12.0817 25.6168C14.2104 28.1601 18.1623 24.4608 19.8429 22.4807L20.0597 22.2492C21.2025 21.0127 22.0854 19.5248 22.9401 18.097C22.9401 18.097 23.7255 16.7901 23.763 16.7297C24.2485 16.6396 24.8332 16.4988 25.4921 16.3077C25.4827 16.3377 22.9712 20.5901 23.2274 22.7009C23.3072 23.3448 23.2464 25.6972 25.5262 26.4108C28.565 26.9238 30.9914 24.551 33.132 22.4399C33.132 22.4399 33.4968 22.0884 33.7031 21.8877C33.6509 22.0981 33.5829 22.379 33.5829 22.379C32.6932 25.4955 33.8924 26.1495 34.6425 26.3907C36.9096 27.0547 39.6179 23.737 39.6268 23.737C39.5564 24.782 39.3512 25.6465 40.4448 26.3403C41.477 26.7125 42.5216 26.145 43.3158 25.6121C46.176 23.5816 48.4803 20.4033 50.3414 17.6562H49.1542C49.1402 17.6562 46.2249 21.9128 44.3317 22.838C44.3287 22.838 43.9841 23.0161 43.7857 22.8752C43.5399 22.664 43.6368 22.2249 43.7886 21.9139C43.7981 21.8937 51.0982 9.13974 51.0982 9.13974H47.6515C47.6515 9.13974 47.275 9.75334 47.2443 9.79358C47.2211 9.77353 47.1659 9.66804 47.1277 9.61749C44.9923 6.64194 40.1564 11.2189 36.5156 16.5266C35.114 18.5675 33.3294 20.8654 31.4789 22.5241C31.4789 22.5241 28.7375 25.0554 27.5662 23.2367C27.138 22.4726 27.2698 21.3554 27.5113 20.6217C28.875 16.711 31.225 13.162 33.8992 11.0206C34.654 10.4279 35.4746 10.2565 35.8817 10.5079C36.2698 10.7395 36.3324 11.312 36.0869 11.7042C35.4641 11.6841 34.965 11.8748 34.5595 12.297C33.7604 13.1415 33.4828 13.9559 33.7368 14.7201C34.971 16.4893 37.4325 12.9908 37.3135 10.8597C37.271 10.0955 36.8664 9.37188 36.2623 9.01968C35.3621 8.4771 33.989 8.61762 33.1003 9.05018C31.9105 9.50238 30.0275 11.0805 28.9282 12.3072C27.5444 13.8455 25.171 15.5543 24.4289 15.363C24.6715 14.7094 26.6762 10.5778 24.5673 9.02985V9.02985ZM41.1847 15.1419C41.8552 14.2072 43.8067 11.7039 44.2825 11.2818C45.8826 9.86378 46.5221 10.4877 46.5775 10.9297C45.0842 13.6238 43.3217 16.7102 41.6646 19.4849C41.668 19.475 41.146 20.279 41.146 20.279C40.4141 21.4046 39.6772 22.3698 38.4752 23.0432C38.3038 23.0939 38.0212 23.114 37.8332 22.9727C37.6068 22.8219 37.5175 22.5705 37.543 22.3091C37.6151 21.4448 38.4887 18.8014 41.1847 15.1419V15.1419ZM22.434 16.7603C22.434 16.7603 22.4039 16.8511 22.3892 16.8808C22.3854 16.8808 20.8863 19.3434 20.8863 19.3434C19.9817 20.5601 18.8522 22.0885 17.4403 22.822C17.0218 22.9627 16.4432 23.0535 16.1484 22.6818C15.5234 21.9276 15.8455 20.882 16.1072 20.0378L16.1999 19.7362C16.9502 17.6856 18.1405 15.8757 19.2993 14.1969C19.3138 14.187 19.3462 14.177 19.358 14.177C19.3608 14.187 19.3655 14.187 19.3674 14.2072C20.0945 15.6143 21.4578 16.2675 22.4774 16.5695C22.4835 16.5695 22.4902 16.5796 22.4902 16.5998C22.4904 16.6297 22.4737 16.6702 22.434 16.7603V16.7603ZM23.8541 13.8554C23.8475 13.8755 23.1865 15.4035 23.1865 15.4035C23.0909 15.4838 22.9398 15.4437 22.7666 15.4035L22.4699 15.3529C21.5381 15.0616 20.8353 14.4382 20.6186 13.6944C20.3199 12.2467 21.5475 11.1108 22.0884 10.6988C22.6074 10.3366 23.4142 10.1456 23.8828 10.5178C24.1717 10.8597 24.2812 11.3018 24.2812 11.7847C24.2814 12.4378 24.0812 13.1716 23.8541 13.8554ZM67.4278 18.5195C67.0953 17.7959 66.3065 17.3334 65.4656 17.3836C62.7352 17.6351 60.0645 19.8969 58.6622 23.1437C57.9264 24.8127 57.5248 26.1897 57.2615 28.3812C58.1106 27.3963 59.8424 25.7779 61.8077 24.8932C61.8077 24.8932 62.0751 22.7922 63.4387 20.9223C63.9547 20.148 64.9873 18.9015 66.1468 19.2331C67.16 19.575 66.8038 22.4 65.4573 25.1338C64.461 27.1447 62.9365 29.1558 61.394 30.5428C60.0302 31.7088 58.0124 33.1162 56.247 32.0307C55.1351 31.3675 54.568 29.9797 54.6877 28.1904C55.219 23.1139 57.5132 18.7911 60.7961 13.8653C64.1812 9.29125 67.9127 4.59661 72.9395 2.09303C73.9648 1.57037 74.9143 1.44977 75.735 1.77147C75.735 1.77147 71.0163 4.38521 68.767 9.22078C68.1948 10.4474 67.399 12.1057 68.2004 13.5735C68.6192 14.3374 69.3626 14.3978 69.9614 14.3576C72.7185 13.7141 74.4999 11.1205 75.9553 8.74825C76.7991 6.9488 77.5491 5.15938 77.5491 3.16886C77.5491 2.92765 77.5367 2.60608 77.5165 2.3646C78.8336 1.66117 81.5349 2.90746 81.5349 2.90746C83.6456 3.61144 88.1401 7.07985 89.6561 7.74303C90.3956 6.87861 91.6109 5.57188 92.2953 4.91831L91.3046 4.30499C89.7187 3.32985 88.0424 2.40485 86.3925 1.49015C82.6454 -0.570427 79.5952 0.1532 78.043 0.716249C77.4329 0.937265 76.8755 1.12834 76.8755 1.12834C75.7235 -0.138284 73.834 -0.0179543 72.4419 0.324079C67.4354 1.77161 62.7872 5.30004 57.8038 11.4224C54.14 16.2178 51.8673 20.3597 50.656 24.451C49.7223 27.2054 49.4385 31.2566 51.7175 33.6594C53.655 35.6996 56.2243 35.2576 58.0385 34.5241C61.9694 32.5738 65.5025 28.3715 67.2629 23.5359C67.6878 22.0985 68.1592 20.0679 67.4278 18.5195V18.5195ZM76.4669 3.3701C75.9465 9.38177 71.3076 12.9106 70.1597 13.1917C69.4641 13.3322 68.2772 13.0208 69.3369 10.4978C70.8971 7.09963 73.5613 4.21474 76.4195 2.73685C76.4891 2.98823 76.4872 3.14867 76.4669 3.3701V3.3701ZM103.985 4.13383C101.49 5.56158 98.9027 6.48617 95.7715 6.1646C94.9038 7.15004 94.0588 8.16529 93.28 9.21062C97.6749 10.3366 102.334 7.83342 104.933 5.45114C107.682 3.04839 109.091 0.0227051 109.091 0.0227051C109.091 0.0227051 107.031 2.39496 103.985 4.13383ZM56.8267 9.14001H53.5535L51.7071 12.162H54.9797L56.8267 9.14001Z" fill="#E61A27"/>
<path d="M95.7579 31.6773C95.406 31.9185 94.9115 31.7331 95.0963 31.1803C95.5569 29.7729 97.3877 26.9048 97.3877 26.9048L102.487 17.7941H98.9942C98.8281 18.0688 98.4732 18.6996 98.4732 18.6996C98.3116 18.4284 97.8283 17.8255 97.6294 17.6952C96.776 17.1519 95.5241 17.4088 94.6603 17.9012C90.905 20.1132 88.1651 24.4834 86.0041 27.8915C86.0041 27.8915 83.7294 31.6799 82.4668 31.9616C81.4811 32.0421 81.5828 30.7045 81.6255 30.3928C82.0066 28.1406 82.8917 25.9996 83.7834 24.0593C85.5973 22.7927 87.6672 21.134 89.5483 19.3145C93.6308 15.3835 97.0725 10.9301 97.5755 9.93486C97.5755 9.93486 97.031 10.0456 96.388 10.0655C93.2473 14.4787 86.8202 20.8927 84.8717 21.8475C85.7349 19.756 91.3119 9.77387 96.0576 4.99887L96.8045 4.27483C97.9594 3.13884 99.1558 1.97277 100.088 1.7817C100.187 1.77167 100.314 1.7817 100.423 2.01329C100.465 2.89777 100.138 3.55134 99.7628 4.29516L99.2372 5.38101C99.2372 5.38101 99.9816 5.24022 100.471 5.07895C101.038 4.00382 101.666 2.79709 101.434 1.35986C101.357 0.89736 101.025 0.545574 100.59 0.46508C99.1748 0.193651 97.632 1.24887 96.3904 2.10368L96.3403 2.13362C89.9582 7.17016 84.5693 14.4284 79.8577 24.3406C79.5162 24.6016 78.1969 24.9136 77.9727 24.7626C78.438 23.7978 79.0238 22.5007 79.3168 21.0932C79.3676 20.6909 79.4147 20.2791 79.4147 19.877C79.4147 19.0118 79.2086 18.1978 78.4392 17.6351C77.537 17.1827 76.422 17.3939 75.6701 17.7354C72.3023 19.1428 69.7852 22.6214 67.9687 25.4861C66.9918 27.3062 66.0177 29.2555 65.748 31.4876C65.558 33.2365 65.9448 34.3626 66.932 34.9257C67.9471 35.448 69.2249 34.9051 69.7268 34.6439C73.1388 32.8343 75.5228 29.2055 77.4019 25.8879C77.4766 25.878 78.5026 25.848 79.2788 25.6467C79.289 25.6467 79.2934 25.6467 79.3106 25.6571C79.2661 25.8074 78.8651 27.0141 78.8651 27.0141C77.6741 30.5323 77.1233 32.9251 78.2483 34.3424C79.8559 36.343 82.5174 34.2724 84.6825 31.5375C84.2177 34.8145 85.9037 35.3276 87.1891 35.0765C88.6655 34.6746 90.3107 33.0858 91.0742 32.2718C90.8291 33.2266 90.8956 34.936 92.2388 35.1066C93.1592 35.278 93.8483 34.7736 94.6453 34.3412C97.5047 32.7728 100.928 27.5465 101.816 26.0355H100.651C99.3876 27.959 97.7801 30.4805 95.7579 31.6773V31.6773ZM70.0919 31.3273C69.9105 31.0557 69.8504 30.759 69.8444 30.4382C69.8096 28.4669 71.915 24.9369 73.401 23.0138H73.4041C74.0268 24.3875 75.437 25.2704 76.2883 25.6426C75.2311 28.0152 71.6048 33.0965 70.0919 31.3273V31.3273ZM76.8852 24.5818C76.7846 24.6527 75.0063 24.0491 74.6625 22.3905C74.3709 20.9625 75.3472 19.8467 76.2916 19.2843C76.697 18.9623 77.3077 18.8522 77.7556 19.0123C78.1714 19.2943 78.284 19.7974 78.284 20.3393C78.284 20.6717 78.2403 21.0132 78.2017 21.3247L78.1932 21.3953C77.8954 22.5098 77.4557 23.5809 76.8852 24.5818V24.5818ZM91.1484 30.6941C91.1469 30.6941 90.8109 30.9956 90.8109 30.9956C90.3312 31.4277 89.8376 31.8901 89.2416 31.6588C89.0771 31.5986 88.9613 31.3776 88.9335 31.2062C88.9063 29.9696 89.459 28.8239 89.9952 27.7081L90.1326 27.4165C91.6746 24.8229 93.467 21.7669 96.0994 19.646C96.543 19.3236 97.0243 19.0527 97.5324 19.264C97.6493 19.3744 97.7854 19.5655 97.7854 19.7563C97.7854 19.8169 97.7319 19.9776 97.7012 20.0277C96.966 21.2246 96.2659 22.4809 95.585 23.6872C94.2544 26.0698 92.874 28.5323 91.1484 30.6941V30.6941Z" fill="#E61A27"/>
</g>
<defs>
<clipPath id="clip0_20_428">
<rect width="109.091" height="36" fill="white"/>
</clipPath>
</defs>
</svg>
