<svg width="170" height="121" viewBox="0 0 170 121" fill="none" xmlns="http://www.w3.org/2000/svg">
<g style="mix-blend-mode:luminosity" clip-path="url(#clip0_20_381)">
<path d="M29.5286 71.7277L25.4829 81.5658C25.4829 81.5658 31.8607 83.285 37.6673 82.3777C43.4739 81.4703 52.0887 74.641 52.8502 67.8114C53.6117 60.9819 49.4233 57.257 47.3293 54.678C45.2351 52.0991 45.5683 49.8066 48.2335 48.3738C50.8989 46.9411 55.1347 47.1798 57.8001 51.908L60.8936 44.1715C60.8936 44.1715 52.85 40.3986 44.3306 44.5057C35.8112 48.6128 35.811 56.6363 37.3816 59.836C38.9523 63.0357 43.5689 64.2298 43.7119 68.0504C43.8546 71.871 41.3321 74.9274 36.9058 74.8797C32.4795 74.832 31.7656 74.1156 29.5286 71.7277V71.7277ZM55.551 85.3627C55.551 85.3627 57.9427 79.4885 60.4058 72.6471C65.6888 58.1407 66.8311 57.066 68.723 56.9944C70.6149 56.9228 70.2936 58.9287 70.2223 60.7911C69.9724 66.8802 61.6909 75.7632 60.1916 76.9452C58.5406 78.0735 59.0493 78.0467 59.4659 77.9839C73.1257 75.9303 77.0285 64.564 77.3616 62.5581C78.7418 53.4841 73.554 52.9587 70.841 53.102C68.128 53.2452 59.6562 54.3438 59.6562 54.3438L47.3291 86.4849L55.551 85.3627ZM81.8829 74.7365C81.8829 74.7365 87.3562 60.7434 87.7846 59.5494C90.6879 55.0124 95.1143 56.1107 95.1143 56.1107L97.97 48.8037C97.97 48.8037 96.5897 48.5173 93.6388 49.3769C90.6879 50.2365 87.9274 53.9616 87.9274 53.9616L89.0698 50.3797L83.2156 51.0006L73.5538 75.7391L81.8829 74.7365ZM100.017 48.6607L90.4025 73.447L98.8743 72.5396L108.488 47.6576L100.017 48.6607ZM115.342 42.5955L113.772 47.0847L110.202 47.2757L108.013 53.2454L111.535 53.0067L104.062 71.7277L112.344 70.6771L119.721 51.6694L123.719 51.144L125.861 45.3653L121.863 45.7952L124.766 38.4882L115.342 42.5955ZM140.092 59.4061C139.733 59.9008 134.856 65.3758 131.049 64.2775C127.241 63.1792 128.669 58.9287 129.906 56.3974C131.144 53.8663 134.713 46.7025 137.093 47.1802C138.092 47.6101 138.188 49.2816 134.475 54.1528C133.761 55.2034 132.905 56.1109 130.192 57.8301C129.906 58.4033 129.954 59.0719 135.475 57.1615C140.996 55.2511 143.233 51.144 143.375 47.9443C143.518 44.7446 139.092 43.6938 136.332 44.3147C133.571 44.9356 125.67 47.0847 121.006 58.069C120.054 60.0272 118.103 68.4803 126.432 69.2444C129.335 69.4831 136.046 67.9071 140.805 60.5046C140.996 59.9793 140.472 58.8809 140.092 59.4061ZM110.88 37.6167C109.49 36.2221 106.554 36.9076 104.321 39.148C102.088 41.3883 101.405 44.335 102.795 45.7297C104.185 47.1243 107.121 46.4388 109.354 44.1985C111.587 41.9579 112.27 39.0114 110.88 37.6167ZM153.466 91.595C79.7888 51.7649 36.3822 120.584 36.3822 120.584C27.8151 73.7814 0.400391 80.372 0.400391 80.372C45.8061 64.7074 28.529 17.2359 28.529 17.2359C87.0707 69.6741 140.282 0.616211 140.282 0.616211C140.282 0.616211 131.477 28.6024 141.995 33.8557C152.514 39.1091 169.6 32.9961 169.6 32.9961C130.192 58.3555 153.466 91.595 153.466 91.595V91.595ZM157.273 39.4912C157.273 39.4912 126.622 45.6997 133.571 14.5616C133.571 14.5616 89.8552 65.8296 33.6218 23.8267C33.6218 23.8267 46.0917 63.442 4.96965 79.1304C4.96965 79.1304 33.5981 77.9125 39.1666 106.639C39.1666 106.639 82.5494 55.8244 149.277 86.3896C149.277 86.3894 133.095 60.3137 157.273 39.4912V39.4912ZM138.576 70.8563C138.576 69.7726 137.697 68.8907 136.617 68.8907C135.537 68.8907 134.658 69.7726 134.658 70.8563C134.658 71.9398 135.537 72.8216 136.617 72.8216C137.697 72.8216 138.576 71.9398 138.576 70.8563ZM138.299 70.8563C138.299 71.7869 137.545 72.544 136.617 72.544C135.689 72.544 134.935 71.7869 134.935 70.8563C134.935 69.9256 135.69 69.1683 136.617 69.1683C137.545 69.1683 138.299 69.9256 138.299 70.8563ZM137.736 70.2959C137.647 70.7447 137.348 70.8942 137.021 70.9238L137.409 71.9702H136.812L136.753 71.8214L136.455 70.9542H136.216L136.008 71.9702H135.502L135.709 70.9238L136.008 69.5488H136.901C137.527 69.5488 137.855 69.7279 137.736 70.2959ZM136.782 69.9669H136.426L136.306 70.5652H136.753C136.992 70.5652 137.141 70.5054 137.199 70.2365C137.23 69.9972 136.991 69.9669 136.782 69.9669Z" fill="white"/>
</g>
<defs>
<clipPath id="clip0_20_381">
<rect width="169.2" height="120" fill="white" transform="translate(0.400391 0.600098)"/>
</clipPath>
</defs>
</svg>
