<svg width="186" height="62" viewBox="0 0 186 62" fill="none" xmlns="http://www.w3.org/2000/svg">
<g clip-path="url(#clip0_20_373)">
<path d="M71.4259 53.7753C64.5049 49.2974 55.1121 48.5116 39.9642 52.7327C23.8155 56.5441 18.4313 58.9874 11.3602 54.0826C8.64371 51.6732 7.66976 47.7938 8.39702 42.2058C10.0838 33.0963 14.6422 24.3298 22.7393 14.6058C27.2586 9.54732 31.451 5.20624 36.9866 3.46304C41.2293 2.36949 40.8326 5.71835 40.3193 6.19729C39.7776 6.19729 38.8675 6.28299 38.1642 6.74395C37.5934 7.18857 36.0266 8.62422 35.9425 10.5554C35.8211 13.5117 38.8671 12.8964 40.1809 11.2732C41.5971 9.4441 43.6901 5.94135 42.0437 2.67679C41.3537 1.51482 40.1614 0.711752 38.6811 0.438304C33.6121 0.147343 28.8914 2.57428 24.5344 5.25738C15.0061 11.9054 7.38402 21.1171 3.07115 31.2004C0.584791 37.2842 -1.66395 45.999 1.7066 53.0921C4.31432 58.0137 9.72762 60.6279 16.1862 60.0812C20.716 59.6032 26.1935 58.1328 29.8775 57.2449C33.5617 56.3555 52.4193 49.845 58.6154 61.1764C58.6154 61.1764 60.6758 57.1592 65.825 57.0735C70.0584 56.6812 76.1657 58.3044 80.6129 61.5851C79.1312 59.347 74.9304 56.0486 71.4259 53.7753V53.7753Z" fill="white"/>
<path d="M41.8871 15.7506C38.3601 13.4264 31.2711 17.8698 25.5933 25.4915C20.4011 32.3282 18.1591 40.2741 20.5991 43.9484C24.2285 48.272 30.9666 41.9832 33.8319 38.617L34.2016 38.2235C36.1501 36.1214 37.6554 33.592 39.1127 31.1648C39.1127 31.1648 40.4519 28.9431 40.5158 28.8404C41.3435 28.6872 42.3405 28.4478 43.4639 28.123C43.4479 28.1739 39.1657 35.4031 39.6025 38.9913C39.7386 40.0861 39.6349 44.085 43.522 45.2982C48.7031 46.1703 52.8402 42.1366 56.4899 38.5477C56.4899 38.5477 57.1119 37.9501 57.4637 37.6089C57.3746 37.9667 57.2586 38.4442 57.2586 38.4442C55.7418 43.7422 57.7864 44.854 59.0653 45.2641C62.9307 46.3929 67.5483 40.7528 67.5635 40.7528C67.4435 42.5294 67.0936 43.9989 68.9582 45.1784C70.718 45.8112 72.4992 44.8463 73.8533 43.9405C78.73 40.4887 82.6588 35.0855 85.8319 30.4155H83.8078C83.7838 30.4155 78.8132 37.6517 75.5854 39.2244C75.5803 39.2244 74.9928 39.5273 74.6545 39.2877C74.2353 38.9288 74.4006 38.1822 74.6594 37.6535C74.6756 37.6192 87.1223 15.9374 87.1223 15.9374H81.2456C81.2456 15.9374 80.6037 16.9806 80.5514 17.049C80.5119 17.0149 80.4177 16.8355 80.3526 16.7496C76.7116 11.6912 68.4665 19.4719 62.259 28.495C59.8691 31.9646 56.8264 35.8711 53.6713 38.6908C53.6713 38.6908 48.9972 42.9941 47.0002 39.9023C46.2702 38.6032 46.4948 36.7041 46.9065 35.4568C49.2318 28.8086 53.2384 22.7753 57.798 19.135C59.0849 18.1274 60.4841 17.8359 61.1781 18.2633C61.8398 18.657 61.9465 19.6303 61.528 20.297C60.4662 20.2629 59.6152 20.587 58.9238 21.3048C57.5613 22.7405 57.0879 24.125 57.5211 25.424C59.6254 28.4317 63.8223 22.4843 63.6193 18.8613C63.5468 17.5622 62.857 16.3321 61.827 15.7333C60.2923 14.8109 57.951 15.0498 56.4358 15.7852C54.4072 16.5539 51.1966 19.2368 49.3224 21.3221C46.963 23.9372 42.9164 26.8422 41.6511 26.5169C42.0647 25.4058 45.4827 18.3821 41.8871 15.7506V15.7506ZM70.2198 26.1412C71.363 24.5521 74.6903 20.2965 75.5015 19.5789C78.2296 17.1683 79.3201 18.2289 79.4144 18.9804C76.8683 23.5603 73.8633 28.8072 71.0379 33.5243C71.0437 33.5074 70.1537 34.8742 70.1537 34.8742C68.9059 36.7876 67.6495 38.4286 65.6 39.5733C65.3077 39.6594 64.826 39.6938 64.5054 39.4535C64.1194 39.1971 63.9671 38.7697 64.0106 38.3254C64.1336 36.8561 65.623 32.3623 70.2198 26.1412V26.1412ZM38.2499 28.8925C38.2499 28.8925 38.1985 29.0468 38.1734 29.0973C38.1668 29.0973 35.611 33.2837 35.611 33.2837C34.0686 35.352 32.1428 37.9503 29.7355 39.1973C29.0219 39.4364 28.0354 39.5908 27.5328 38.9589C26.4672 37.6769 27.0164 35.8994 27.4626 34.4642L27.6207 33.9514C28.8999 30.4654 30.9294 27.3886 32.9051 24.5346C32.9298 24.5178 32.9851 24.5007 33.0051 24.5007C33.01 24.5178 33.0179 24.5178 33.0212 24.5521C34.2608 26.9442 36.5854 28.0546 38.3238 28.5681C38.3343 28.5681 38.3456 28.5852 38.3456 28.6195C38.3459 28.6704 38.3175 28.7393 38.2499 28.8925V28.8925ZM40.6711 23.9541C40.6597 23.9881 39.5328 26.5858 39.5328 26.5858C39.3698 26.7224 39.1122 26.6542 38.8169 26.5858L38.311 26.4999C36.7223 26.0046 35.524 24.9449 35.1546 23.6804C34.6452 21.2193 36.7384 19.2882 37.6605 18.5878C38.5454 17.9721 39.9211 17.6475 40.7199 18.2801C41.2126 18.8613 41.3993 19.613 41.3993 20.4338C41.3995 21.5442 41.0582 22.7916 40.6711 23.9541ZM114.964 31.8831C114.397 30.6529 113.052 29.8667 111.619 29.9519C106.963 30.3795 102.41 34.2246 100.019 39.7442C98.7643 42.5814 98.0795 44.9224 97.6306 48.648C99.0784 46.9736 102.031 44.2223 105.382 42.7183C105.382 42.7183 105.838 39.1466 108.163 35.9678C109.043 34.6514 110.803 32.5325 112.78 33.0962C114.508 33.6774 113.9 38.4799 111.605 43.1274C109.906 46.5458 107.307 49.9648 104.677 52.3226C102.351 54.3049 98.911 56.6975 95.901 54.852C94.0052 53.7246 93.0383 51.3654 93.2424 48.3236C94.1482 39.6935 98.0598 32.3448 103.657 23.9709C109.429 16.195 115.791 8.21411 124.362 3.95804C126.11 3.06951 127.729 2.86448 129.128 3.41137C129.128 3.41137 121.083 7.85473 117.248 16.0752C116.272 18.1605 114.915 20.9795 116.282 23.4749C116.996 24.7735 118.263 24.8762 119.284 24.8078C123.985 23.7138 127.022 19.3047 129.504 15.2719C130.942 12.2128 132.221 9.17083 132.221 5.78694C132.221 5.37688 132.2 4.83022 132.165 4.4197C134.411 3.22386 139.017 5.34256 139.017 5.34256C142.616 6.53933 150.279 12.4356 152.864 13.563C154.124 12.0935 156.196 9.87208 157.363 8.761L155.674 7.71835C152.97 6.06062 150.112 4.48812 147.299 2.93313C140.91 -0.569848 135.71 0.660317 133.063 1.6175C132.023 1.99323 131.072 2.31805 131.072 2.31805C129.108 0.164795 125.887 0.369356 123.513 0.950812C114.977 3.41161 107.052 9.40995 98.5552 19.818C92.3084 27.9701 88.4336 35.0113 86.3683 41.9666C84.7764 46.6491 84.2925 53.5362 88.1781 57.6208C91.4817 61.0892 95.8622 60.3378 98.9554 59.0908C105.658 55.7753 111.681 48.6314 114.683 40.4109C115.408 37.9674 116.211 34.5153 114.964 31.8831V31.8831ZM130.376 6.12904C129.489 16.3489 121.579 22.3479 119.622 22.8257C118.436 23.0646 116.412 22.5352 118.219 18.2462C120.879 12.4692 125.422 7.56493 130.295 5.05253C130.414 5.47986 130.411 5.75261 130.376 6.12904V6.12904ZM177.294 7.42739C173.039 9.85456 168.629 11.4264 163.29 10.8797C161.811 12.5549 160.37 14.2809 159.042 16.0579C166.535 17.9721 174.479 13.7167 178.91 9.66681C183.597 5.58214 186 0.438477 186 0.438477C186 0.438477 182.487 4.47131 177.294 7.42739ZM96.8894 15.9379H91.3085L88.1604 21.0753H93.7402L96.8894 15.9379Z" fill="white"/>
<path d="M163.268 54.2509C162.668 54.6609 161.825 54.3457 162.14 53.406C162.926 51.0134 166.047 46.1376 166.047 46.1376L174.742 30.6493H168.786C168.503 31.1164 167.898 32.1887 167.898 32.1887C167.622 31.7277 166.798 30.7028 166.459 30.4812C165.004 29.5577 162.87 29.9943 161.397 30.8315C154.994 34.5918 150.322 42.0211 146.638 47.8149C146.638 47.8149 142.76 54.2553 140.607 54.7342C138.926 54.8711 139.1 52.5971 139.172 52.0673C139.822 48.2385 141.331 44.5987 142.852 41.3003C145.944 39.147 149.474 36.3273 152.681 33.2341C159.641 26.5514 165.51 18.9805 166.367 17.2887C166.367 17.2887 165.439 17.4769 164.343 17.5108C158.988 25.0132 148.03 35.917 144.707 37.5402C146.179 33.9847 155.688 17.015 163.779 8.89752L165.053 7.66665C167.022 5.73547 169.062 3.75315 170.651 3.42833C170.819 3.41128 171.036 3.42833 171.222 3.82204C171.293 5.32565 170.736 6.43672 170.097 7.70122L169.2 9.54716C169.2 9.54716 170.47 9.30781 171.303 9.03366C172.27 7.20593 173.342 5.15448 172.947 2.7112C172.815 1.92495 172.248 1.32692 171.508 1.19007C169.094 0.728646 166.463 2.52252 164.347 3.97569L164.261 4.0266C153.38 12.5887 144.192 24.9277 136.158 41.7785C135.576 42.2222 133.327 42.7525 132.944 42.4959C133.738 40.8557 134.737 38.6506 135.236 36.2579C135.323 35.574 135.403 34.8739 135.403 34.1904C135.403 32.7195 135.052 31.3357 133.74 30.3792C132.202 29.61 130.3 29.9691 129.018 30.5496C123.276 32.9422 118.985 38.8558 115.888 43.7258C114.222 46.8199 112.561 50.1337 112.101 53.9284C111.777 56.9015 112.437 58.8159 114.12 59.7731C115.851 60.6611 118.029 59.738 118.885 59.2941C124.703 56.2178 128.767 50.0487 131.971 44.4088C132.099 44.392 133.848 44.3411 135.171 43.9988C135.189 43.9988 135.196 43.9988 135.226 44.0165C135.15 44.272 134.466 46.3234 134.466 46.3234C132.435 52.3043 131.496 56.3721 133.414 58.7815C136.155 62.1825 140.693 58.6625 144.385 54.0131C143.592 59.5841 146.467 60.4563 148.658 60.0295C151.176 59.3462 153.981 56.6453 155.283 55.2615C154.865 56.8847 154.978 59.7906 157.268 60.0806C158.837 60.372 160.012 59.5146 161.371 58.7794C166.247 56.1132 172.083 47.2286 173.598 44.6599H171.611C169.457 47.9298 166.716 52.2162 163.268 54.2509V54.2509ZM119.508 53.6559C119.198 53.1942 119.096 52.6898 119.086 52.1443C119.026 48.7931 122.616 42.7922 125.15 39.523H125.155C126.217 41.8581 128.621 43.3592 130.073 43.9918C128.27 48.0253 122.087 56.6636 119.508 53.6559V53.6559ZM131.09 42.1886C130.919 42.3091 127.887 41.283 127.301 38.4633C126.803 36.0356 128.468 34.1388 130.078 33.1828C130.769 32.6354 131.811 32.4481 132.574 32.7204C133.283 33.1998 133.475 34.055 133.475 34.9762C133.475 35.5413 133.401 36.1218 133.335 36.6514L133.32 36.7715C132.813 38.6661 132.063 40.4869 131.09 42.1886V42.1886ZM155.409 52.5794C155.406 52.5794 154.834 53.0919 154.834 53.0919C154.016 53.8266 153.174 54.6126 152.158 54.2193C151.877 54.1171 151.68 53.7413 151.633 53.4499C151.586 51.3478 152.529 49.4 153.443 47.5032L153.677 47.0074C156.306 42.5984 159.362 37.4031 163.85 33.7976C164.607 33.2496 165.427 32.7891 166.294 33.1482C166.493 33.336 166.725 33.6608 166.725 33.9851C166.725 34.0881 166.634 34.3613 166.582 34.4466C165.328 36.4812 164.134 38.6169 162.973 40.6677C160.705 44.718 158.351 48.9043 155.409 52.5794V52.5794Z" fill="white"/>
</g>
<defs>
<clipPath id="clip0_20_373">
<rect width="186" height="61.2" fill="white" transform="translate(0 0.399414)"/>
</clipPath>
</defs>
</svg>
