<svg width="148" height="30" viewBox="0 0 148 30" fill="none" xmlns="http://www.w3.org/2000/svg">
<path d="M7.11369 5.57143V13.5H20.9407V19.0714H7.11369V30H0.200195V0H22.7758V5.57143H7.11369Z" fill="white"/>
<path d="M45.8794 23.5714H32.0098L29.3638 30H22.2796L35.5945 0H42.4227L55.7802 30H48.5253L45.8794 23.5714ZM43.703 18.3L38.9659 6.81429L34.2289 18.3H43.703Z" fill="white"/>
<path d="M86.2775 0V30H80.6016L65.7077 11.7857V30H58.8796V0H64.5982L79.4494 18.2143V0H86.2775Z" fill="white"/>
<path d="M99.5334 5.65714H89.974V0H116.006V5.65714H106.447V30H99.5334V5.65714Z" fill="white"/>
<path d="M137.899 23.5714H124.03L121.384 30H114.3L127.614 0H134.443L147.8 30H140.545L137.899 23.5714ZM135.723 18.3L130.986 6.81429L126.249 18.3H135.723Z" fill="white"/>
</svg>
