<svg width="110" height="37" viewBox="0 0 110 37" fill="none" xmlns="http://www.w3.org/2000/svg">
<g clip-path="url(#clip0_325_1384)">
<path d="M41.892 31.4004C37.8328 28.7663 32.3238 28.3041 23.4394 30.7871C13.968 33.0291 10.8101 34.4663 6.6629 31.5812C5.06962 30.1639 4.4984 27.8819 4.92494 24.5948C5.91426 19.2363 8.5878 14.0795 13.3368 8.35948C15.9874 5.38393 18.4463 2.83036 21.693 1.80495C24.1814 1.16168 23.9488 3.1316 23.6477 3.41333C23.3299 3.41333 22.7962 3.46374 22.3837 3.73489C22.0489 3.99643 21.13 4.84094 21.0806 5.97693C21.0094 7.71594 22.7959 7.35399 23.5665 6.39918C24.3971 5.32322 25.6247 3.26278 24.6591 1.34245C24.2543 0.658933 23.5551 0.186543 22.6868 0.0256913C19.7138 -0.145463 16.9451 1.28215 14.3897 2.86044C8.80121 6.77102 4.3308 12.1897 1.80126 18.121C0.342986 21.6997 -0.975923 26.8261 1.00094 30.9985C2.53039 33.8935 5.70535 35.4313 9.4934 35.1098C12.1502 34.8286 15.3628 33.9636 17.5234 33.4413C19.6843 32.9181 30.7444 29.0885 34.3785 35.754C34.3785 35.754 35.587 33.3909 38.607 33.3405C41.0899 33.1098 44.6719 34.0646 47.2803 35.9944C46.4113 34.6779 43.9474 32.7376 41.892 31.4004V31.4004Z" fill="url(#paint0_linear_325_1384)"/>
<path d="M24.5673 9.03302C22.4987 7.66585 18.341 10.2796 15.0108 14.763C11.9655 18.7845 10.6506 23.4586 12.0817 25.62C14.2104 28.1632 18.1623 24.4639 19.8429 22.4838L20.0597 22.2524C21.2025 21.0158 22.0854 19.5279 22.9401 18.1002C22.9401 18.1002 23.7255 16.7933 23.763 16.7329C24.2485 16.6428 24.8332 16.502 25.4921 16.3109C25.4827 16.3409 22.9712 20.5933 23.2274 22.704C23.3072 23.348 23.2464 25.7003 25.5262 26.4139C28.565 26.927 30.9914 24.5542 33.132 22.443C33.132 22.443 33.4968 22.0915 33.7031 21.8909C33.6509 22.1013 33.5829 22.3822 33.5829 22.3822C32.6932 25.4987 33.8924 26.1527 34.6425 26.3939C36.9096 27.0579 39.6179 23.7402 39.6268 23.7402C39.5564 24.7852 39.3512 25.6496 40.4448 26.3435C41.477 26.7157 42.5216 26.1481 43.3158 25.6153C46.176 23.5848 48.4803 20.4065 50.3414 17.6594H49.1542C49.1402 17.6594 46.2249 21.916 44.3317 22.8411C44.3287 22.8411 43.9841 23.0193 43.7857 22.8783C43.5399 22.6672 43.6368 22.2281 43.7886 21.9171C43.7981 21.8969 51.0982 9.14291 51.0982 9.14291H47.6515C47.6515 9.14291 47.275 9.75651 47.2443 9.79676C47.2211 9.7767 47.1659 9.67121 47.1277 9.62066C44.9923 6.64511 40.1564 11.222 36.5156 16.5297C35.114 18.5707 33.3294 20.8686 31.4789 22.5273C31.4789 22.5273 28.7375 25.0586 27.5662 23.2399C27.138 22.4757 27.2698 21.3586 27.5113 20.6249C28.875 16.7142 31.225 13.1652 33.8992 11.0238C34.654 10.4311 35.4746 10.2597 35.8817 10.511C36.2698 10.7426 36.3324 11.3152 36.0869 11.7073C35.4641 11.6873 34.965 11.8779 34.5595 12.3002C33.7604 13.1447 33.4828 13.9591 33.7368 14.7233C34.971 16.4925 37.4325 12.994 37.3135 10.8628C37.271 10.0987 36.8664 9.37505 36.2623 9.02286C35.3621 8.48027 33.989 8.6208 33.1003 9.05335C31.9105 9.50555 30.0275 11.0837 28.9282 12.3104C27.5444 13.8487 25.171 15.5575 24.4289 15.3661C24.6715 14.7126 26.6762 10.581 24.5673 9.03302V9.03302ZM41.1847 15.1451C41.8552 14.2104 43.8067 11.7071 44.2825 11.2849C45.8826 9.86695 46.5221 10.4909 46.5775 10.9329C45.0842 13.627 43.3217 16.7134 41.6646 19.4881C41.668 19.4782 41.146 20.2822 41.146 20.2822C40.4141 21.4077 39.6772 22.373 38.4752 23.0463C38.3038 23.097 38.0212 23.1172 37.8332 22.9759C37.6068 22.8251 37.5175 22.5737 37.543 22.3123C37.6151 21.448 38.4887 18.8046 41.1847 15.1451V15.1451ZM22.434 16.7635C22.434 16.7635 22.4039 16.8543 22.3892 16.884C22.3854 16.884 20.8863 19.3466 20.8863 19.3466C19.9817 20.5632 18.8522 22.0917 17.4403 22.8252C17.0218 22.9658 16.4432 23.0566 16.1484 22.6849C15.5234 21.9308 15.8455 20.8852 16.1072 20.041L16.1999 19.7393C16.9502 17.6888 18.1405 15.8789 19.2993 14.2001C19.3138 14.1902 19.3462 14.1801 19.358 14.1801C19.3608 14.1902 19.3655 14.1902 19.3674 14.2104C20.0945 15.6175 21.4578 16.2707 22.4774 16.5727C22.4835 16.5727 22.4902 16.5827 22.4902 16.6029C22.4904 16.6329 22.4737 16.6734 22.434 16.7635V16.7635ZM23.8541 13.8586C23.8475 13.8786 23.1865 15.4066 23.1865 15.4066C23.0909 15.487 22.9398 15.4469 22.7666 15.4066L22.4699 15.3561C21.5381 15.0648 20.8353 14.4414 20.6186 13.6976C20.3199 12.2499 21.5475 11.1139 22.0884 10.702C22.6074 10.3398 23.4142 10.1488 23.8828 10.5209C24.1717 10.8628 24.2812 11.305 24.2812 11.7878C24.2814 12.441 24.0812 13.1748 23.8541 13.8586ZM67.4278 18.5227C67.0953 17.7991 66.3065 17.3366 65.4656 17.3867C62.7352 17.6382 60.0645 19.9001 58.6622 23.1469C57.9264 24.8158 57.5248 26.1929 57.2615 28.3844C58.1106 27.3995 59.8424 25.7811 61.8077 24.8963C61.8077 24.8963 62.0751 22.7954 63.4387 20.9255C63.9547 20.1512 64.9873 18.9047 66.1468 19.2363C67.16 19.5782 66.8038 22.4032 65.4573 25.137C64.461 27.1479 62.9365 29.159 61.394 30.5459C60.0302 31.712 58.0124 33.1194 56.247 32.0338C55.1351 31.3707 54.568 29.9829 54.6877 28.1936C55.219 23.1171 57.5132 18.7943 60.7961 13.8685C64.1812 9.29442 67.9127 4.59978 72.9395 2.09621C73.9648 1.57354 74.9143 1.45294 75.735 1.77464C75.735 1.77464 71.0163 4.38838 68.767 9.22396C68.1948 10.4506 67.399 12.1088 68.2004 13.5767C68.6192 14.3406 69.3626 14.401 69.9614 14.3608C72.7185 13.7172 74.4999 11.1237 75.9553 8.75143C76.7991 6.95198 77.5491 5.16255 77.5491 3.17203C77.5491 2.93082 77.5367 2.60926 77.5165 2.36777C78.8336 1.66434 81.5349 2.91063 81.5349 2.91063C83.6456 3.61462 88.1401 7.08302 89.6561 7.74621C90.3956 6.88178 91.6109 5.57505 92.2953 4.92148L91.3046 4.30816C89.7187 3.33302 88.0424 2.40802 86.3925 1.49332C82.6454 -0.567253 79.5952 0.156373 78.043 0.719423C77.4329 0.940439 76.8755 1.13151 76.8755 1.13151C75.7235 -0.13511 73.834 -0.0147804 72.4419 0.327253C67.4354 1.77478 62.7872 5.30321 57.8038 11.4256C54.14 16.2209 51.8673 20.3628 50.656 24.4542C49.7223 27.2086 49.4385 31.2598 51.7175 33.6626C53.655 35.7028 56.2243 35.2608 58.0385 34.5273C61.9694 32.577 65.5025 28.3746 67.2629 23.5391C67.6878 22.1017 68.1592 20.0711 67.4278 18.5227V18.5227ZM76.4669 3.37327C75.9465 9.38494 71.3076 12.9138 70.1597 13.1948C69.4641 13.3354 68.2772 13.024 69.3369 10.501C70.8971 7.1028 73.5613 4.21791 76.4195 2.74003C76.4891 2.9914 76.4872 3.15184 76.4669 3.37327V3.37327ZM103.985 4.13701C101.49 5.56475 98.9027 6.48934 95.7715 6.16777C94.9038 7.15321 94.0588 8.16846 93.28 9.21379C97.6749 10.3398 102.334 7.83659 104.933 5.45431C107.682 3.05157 109.091 0.0258789 109.091 0.0258789C109.091 0.0258789 107.031 2.39813 103.985 4.13701ZM56.8267 9.14319H53.5535L51.7071 12.1652H54.9797L56.8267 9.14319Z" fill="url(#paint1_linear_325_1384)"/>
<path d="M95.7584 31.68C95.4065 31.9212 94.912 31.7358 95.0968 31.183C95.5574 29.7756 97.3882 26.9075 97.3882 26.9075L102.488 17.7967H98.9947C98.8286 18.0715 98.4737 18.7022 98.4737 18.7022C98.3121 18.4311 97.8288 17.8282 97.6299 17.6978C96.7765 17.1546 95.5245 17.4114 94.6608 17.9039C90.9055 20.1158 88.1655 24.486 86.0046 27.8941C86.0046 27.8941 83.7299 31.6826 82.4673 31.9643C81.4816 32.0448 81.5833 30.7072 81.626 30.3955C82.0071 28.1433 82.8922 26.0022 83.7839 24.062C85.5978 22.7954 87.6677 21.1367 89.5488 19.3172C93.6313 15.3862 97.0729 10.9327 97.576 9.93755C97.576 9.93755 97.0315 10.0483 96.3885 10.0682C93.2478 14.4814 86.8207 20.8954 84.8722 21.8502C85.7354 19.7587 91.3124 9.77656 96.0581 5.00156L96.805 4.27752C97.9599 3.14153 99.1563 1.97546 100.089 1.78439C100.187 1.77436 100.314 1.78439 100.424 2.01598C100.465 2.90046 100.138 3.55403 99.7633 4.29785L99.2377 5.3837C99.2377 5.3837 99.9821 5.2429 100.471 5.08164C101.038 4.0065 101.667 2.79977 101.435 1.36255C101.358 0.900046 101.025 0.54826 100.591 0.467765C99.1753 0.196337 97.6324 1.25156 96.3909 2.10636L96.3408 2.13631C89.9587 7.17285 84.5698 14.4311 79.8581 24.3433C79.5167 24.6043 78.1974 24.9163 77.9732 24.7653C78.4385 23.8005 79.0243 22.5033 79.3173 21.0959C79.3681 20.6936 79.4152 20.2818 79.4152 19.8797C79.4152 19.0145 79.2091 18.2005 78.4397 17.6378C77.5375 17.1853 76.4225 17.3966 75.6706 17.7381C72.3028 19.1455 69.7857 22.6241 67.9692 25.4888C66.9923 27.3088 66.0182 29.2582 65.7485 31.4903C65.5585 33.2392 65.9453 34.3653 66.9325 34.9283C67.9476 35.4507 69.2253 34.9077 69.7273 34.6466C73.1392 32.837 75.5233 29.2082 77.4024 25.8906C77.4771 25.8807 78.5031 25.8507 79.2793 25.6494C79.2895 25.6494 79.2939 25.6494 79.3111 25.6598C79.2666 25.8101 78.8656 27.0168 78.8656 27.0168C77.6746 30.5349 77.1238 32.9278 78.2488 34.3451C79.8564 36.3457 82.5179 34.275 84.683 31.5402C84.2182 34.8172 85.9042 35.3303 87.1896 35.0792C88.666 34.6772 90.3112 33.0885 91.0747 32.2745C90.8295 33.2293 90.8961 34.9386 92.2393 35.1093C93.1597 35.2807 93.8488 34.7763 94.6458 34.3439C97.5052 32.7755 100.928 27.5492 101.817 26.0382H100.652C99.3881 27.9617 97.7805 30.4832 95.7584 31.68V31.68ZM70.0923 31.33C69.911 31.0584 69.8508 30.7617 69.8448 30.4408C69.8101 28.4696 71.9155 24.9396 73.4015 23.0165H73.4046C74.0272 24.3902 75.4375 25.2731 76.2888 25.6452C75.2316 28.0179 71.6053 33.0992 70.0923 31.33V31.33ZM76.8857 24.5845C76.7851 24.6554 75.0067 24.0518 74.663 22.3932C74.3714 20.9652 75.3476 19.8494 76.2921 19.287C76.6975 18.965 77.3081 18.8549 77.7561 19.015C78.1719 19.297 78.2845 19.8 78.2845 20.3419C78.2845 20.6744 78.2407 21.0158 78.2021 21.3274L78.1937 21.398C77.8958 22.5125 77.4562 23.5836 76.8857 24.5845V24.5845ZM91.1489 30.6968C91.1474 30.6968 90.8114 30.9983 90.8114 30.9983C90.3317 31.4304 89.838 31.8928 89.2421 31.6614C89.0775 31.6013 88.9618 31.3803 88.934 31.2088C88.9068 29.9723 89.4595 28.8266 89.9957 27.7108L90.1331 27.4191C91.6751 24.8256 93.4675 21.7696 96.0999 19.6487C96.5434 19.3263 97.0248 19.0554 97.5329 19.2667C97.6498 19.3771 97.7859 19.5682 97.7859 19.759C97.7859 19.8196 97.7324 19.9803 97.7017 20.0304C96.9664 21.2272 96.2664 22.4836 95.5855 23.6899C94.2549 26.0724 92.8744 28.5349 91.1489 30.6968V30.6968Z" fill="url(#paint2_linear_325_1384)"/>
</g>
<defs>
<linearGradient id="paint0_linear_325_1384" x1="23.6402" y1="0.0117187" x2="23.6402" y2="35.9944" gradientUnits="userSpaceOnUse">
<stop stop-color="#FAFAFA"/>
<stop offset="1" stop-color="#7A7A7A"/>
</linearGradient>
<linearGradient id="paint1_linear_325_1384" x1="60.2969" y1="0.0258789" x2="60.2969" y2="35.1412" gradientUnits="userSpaceOnUse">
<stop stop-color="#FAFAFA"/>
<stop offset="1" stop-color="#7A7A7A"/>
</linearGradient>
<linearGradient id="paint2_linear_325_1384" x1="84.0947" y1="0.424316" x2="84.0947" y2="35.1472" gradientUnits="userSpaceOnUse">
<stop stop-color="#FAFAFA"/>
<stop offset="1" stop-color="#7A7A7A"/>
</linearGradient>
<clipPath id="clip0_325_1384">
<rect width="109.091" height="36" fill="white" transform="translate(0 0.00292969)"/>
</clipPath>
</defs>
</svg>
