<svg width="216" height="54" viewBox="0 0 216 54" fill="none" xmlns="http://www.w3.org/2000/svg">
<path fill-rule="evenodd" clip-rule="evenodd" d="M33.8658 3.16399C31.3932 1.83658 29.1285 0.102224 25.5914 0.000488281C22.707 0.0344003 19.7211 1.63311 17.7986 3.53823C15.018 6.8713 14.2285 8.91328 14.3312 14.0497C14.3312 17.8261 16.3221 21.9088 17.1801 31.7748C17.559 36.3336 16.1156 41.7764 10.7611 41.8103C7.25944 42.015 4.95924 37.6598 5.57768 33.5092L0.599609 41.6396C3.41436 43.3073 7.70555 45.2803 10.4873 45.3142C16.7352 45.3142 21.1633 40.1426 22.1949 38.5778C23.6371 36.2972 24.7004 32.2496 24.2543 26.9084C24.049 23.166 21.6449 14.5584 21.6449 10.7833C21.0277 7.07477 24.082 2.92418 25.9715 3.46799C28.7862 3.43408 30.1942 5.88422 30.6403 10.1705L33.8658 3.16399V3.16399ZM210.227 17.235C208.662 16.3957 205.553 15.405 203.317 15.3408C201.491 15.3626 199.6 16.3739 198.383 17.5802C196.624 19.6912 195.234 20.8745 195.299 24.1264C195.474 26.516 196.254 28.885 198.429 34.8499C199.276 37.8438 198.384 41.0086 194.994 41.0316C192.779 41.1587 191.301 39.2221 190.193 36.4874L187.28 41.5257C189.061 42.5806 191.994 44.0025 193.757 44.0231C197.296 44.734 202.185 41.9775 203.73 38.8769C204.727 35.3889 203.88 34.6343 203.599 31.254C203.296 28.8208 201.688 25.7845 201.253 23.2217C200.797 20.6166 202.905 18.1834 204.098 18.5273C205.881 18.5055 207.469 20.2932 207.75 23.0061L210.227 17.235ZM58.057 5.8818C57.8517 4.69125 57.3701 4.48656 56.6148 4.18015L56.6832 3.8059H65.2656L59.6691 17.3804C62.347 16.0881 64.4064 15.9173 65.7801 15.9864C68.4922 15.8156 70.6898 19.2177 69.7621 22.4163L62.6207 41.7062C62.1746 43.0663 62.8615 43.2019 63.8222 43.5435L63.6853 43.9516H53.6949L53.9003 43.3727C54.7582 43.271 55.5136 42.7938 56.1662 41.7062L63.1695 23.8116C63.8564 21.8047 64.0617 20.1369 61.8642 20.2399C59.3586 20.5463 57.6757 22.7906 56.2689 26.057L49.9867 41.7062C49.7814 42.5564 50.0552 43.1353 51.0843 43.5084L50.8789 43.9504H41.3689L41.4374 43.5084C42.3992 43.1341 43.1888 42.4207 43.5322 41.7062L58.057 5.8818V5.8818ZM49.075 17.0304C47.4959 16.248 45.5733 15.5673 43.41 15.6351C38.3293 15.6351 34.5869 18.663 33.3512 20.126C30.9483 22.6101 26.4164 29.7534 26.519 35.6044C26.7244 38.7013 27.4467 44.4155 33.5223 44.5172C36.6805 44.4494 40.9717 42.1361 42.7231 39.279L39.736 35.843C37.9846 39.1761 36.5778 41.8297 33.8315 40.8778C30.4326 39.3457 33.2473 32.338 34.7238 28.7663C36.3371 25.0917 39.3926 18.7296 43.0666 18.8665C44.7826 18.9004 45.2983 20.4652 46.6366 23.6287L49.075 17.0304V17.0304ZM106.354 26.5088C107.933 22.3921 110.165 18.6158 113.255 18.7175C115.453 19.0917 113.84 23.344 112.808 26.5088H106.354V26.5088ZM119.847 19.6694C119.193 17.0497 116.584 15.4171 114.352 15.3493C109.273 15.3493 106.354 18.0368 104.843 19.8402C102.44 22.3243 97.3584 29.4676 97.4611 35.3186C97.6664 38.4155 98.3888 44.1297 104.464 44.2314C107.623 44.1636 112.224 41.7147 113.973 38.8564L110.677 35.556C108.927 38.8903 107.52 41.5427 104.772 40.5907C101.819 39.2633 103.366 33.9561 104.945 30.1458L118.163 30.1131C118.404 29.5705 120.774 23.3101 119.847 19.6694V19.6694ZM177.729 26.5088C179.309 22.3921 181.541 18.6158 184.629 18.7175C186.826 19.0917 185.215 23.344 184.183 26.5088H177.729V26.5088ZM191.221 19.6694C190.569 17.0497 187.96 15.4171 185.728 15.3493C180.648 15.3493 177.729 18.0368 176.22 19.8402C173.816 22.3243 168.734 29.4676 168.837 35.3186C169.045 38.4155 169.766 44.1297 175.84 44.2314C179.001 44.1636 183.601 41.7147 185.35 38.8564L182.054 35.556C180.304 38.8903 178.896 41.5427 176.151 40.5907C173.198 39.2633 174.743 33.9561 176.323 30.1458L189.54 30.1131C189.778 29.5705 192.149 23.3101 191.221 19.6694V19.6694ZM72.8164 16.0142H81.8803L81.675 16.661C81.0578 16.6949 80.5078 17.1369 80.3709 17.7159L77.693 32.0728L87.34 16.0832H91.1508L88.9533 32.0728L97.5344 17.5802C97.8436 17.2048 97.2252 16.5253 96.3672 16.2867L96.4357 16.0142H103.68L103.507 16.5241C102.58 16.6937 101.826 17.1709 101.551 17.6468L86.2387 43.9444H81.9121L83.7662 29.1805L74.772 44.0134L70.0347 43.9795L74.2232 17.648C74.2928 17.1382 73.7429 16.6949 72.7125 16.5931L72.8164 16.0142V16.0142ZM125.412 20.5257C125.687 19.879 125.24 18.5855 123.729 18.858L123.764 18.2791L131.248 16.1026L131.866 18.4498C133.549 16.6464 136.397 15.1495 138.56 15.3202C143.369 15.6945 143.848 20.3549 143.677 23.8588C143.438 26.4107 142.955 29.711 141.272 33.1119C138.733 38.011 135.231 44.2702 128.57 44.3731C126.89 44.3392 124.485 42.6036 123.318 40.971L118.89 52.1293C118.718 52.8099 119.542 53.4216 120.16 53.4216L119.988 54.0005H110.272L110.445 53.5233C111.404 53.3525 112.298 52.8426 112.469 52.3667L125.412 20.5257V20.5257ZM135.848 20.0497C138.871 21.3081 137.188 26.8527 135.333 31.684C133.48 36.514 130.219 41.6517 127.3 40.053C124.383 38.4543 126.408 32.6359 127.954 28.9625C129.499 25.2879 132.828 18.7914 135.848 20.0497ZM149.811 20.5257C150.086 19.879 149.639 18.5855 148.128 18.858L148.163 18.2791L155.647 16.1026L156.265 18.4498C157.948 16.6464 160.796 15.1495 162.959 15.3202C167.768 15.6945 168.247 20.3549 168.076 23.8588C167.837 26.4107 167.354 29.711 165.674 33.1119C163.132 38.011 159.63 44.2702 152.969 44.3731C151.289 44.3392 148.884 42.6036 147.717 40.971L143.289 52.1293C143.117 52.8099 143.941 53.4216 144.559 53.4216L144.387 54.0005H134.671L134.844 53.5233C135.806 53.3525 136.697 52.8426 136.868 52.3667L149.811 20.5257V20.5257ZM160.247 20.0497C163.27 21.3081 161.587 26.8527 159.734 31.684C157.879 36.514 154.618 41.6517 151.699 40.053C148.782 38.4543 150.807 32.6359 152.351 28.9625C153.898 25.2879 157.227 18.7914 160.247 20.0497ZM210.972 45.6545C213.306 45.6545 215.4 43.7143 215.4 41.2326C215.4 38.7837 213.306 36.9125 210.972 36.9125C208.534 36.9125 206.438 38.7837 206.438 41.2326C206.438 43.7155 208.534 45.6545 210.972 45.6545V45.6545ZM207.331 41.2326C207.331 39.1906 208.944 37.5919 210.972 37.5919C212.893 37.5919 214.507 39.1906 214.507 41.2326C214.507 43.3073 212.894 44.9072 210.972 44.9072C208.945 44.9072 207.331 43.3073 207.331 41.2326ZM209.975 41.6069H210.868L212.205 43.7155H213.097L211.655 41.539C212.411 41.47 212.96 41.0279 212.96 40.1438C212.96 39.1919 212.342 38.7837 211.174 38.7837H209.216V43.7155H209.973V41.6069H209.975V41.6069ZM209.975 40.9601V39.3953H211.04C211.589 39.3953 212.138 39.531 212.138 40.1426C212.138 40.8911 211.589 40.9601 210.97 40.9601H209.975Z" fill="white"/>
</svg>
